<mxfile host="app.diagrams.net" agent="Mozilla/5.0 (Windows NT 10.0; Win64; x64) AppleWebKit/537.36 (KHTML, like Gecko) Chrome/131.0.0.0 Safari/537.36" version="24.8.8">
  <diagram id="C5RBs43oDa-KdzZeNtuy" name="Page-1">
    <mxGraphModel dx="2868" dy="1476" grid="1" gridSize="10" guides="1" tooltips="1" connect="1" arrows="1" fold="1" page="1" pageScale="1" pageWidth="827" pageHeight="1169" math="0" shadow="0">
      <root>
        <mxCell id="WIyWlLk6GJQsqaUBKTNV-0" />
        <mxCell id="WIyWlLk6GJQsqaUBKTNV-1" parent="WIyWlLk6GJQsqaUBKTNV-0" />
        <mxCell id="WIyWlLk6GJQsqaUBKTNV-2" value="" style="rounded=0;html=1;jettySize=auto;orthogonalLoop=1;fontSize=11;endArrow=block;endFill=0;endSize=8;strokeWidth=1;shadow=0;labelBackgroundColor=none;edgeStyle=orthogonalEdgeStyle;" parent="WIyWlLk6GJQsqaUBKTNV-1" source="WIyWlLk6GJQsqaUBKTNV-3" edge="1">
          <mxGeometry relative="1" as="geometry">
            <mxPoint x="220" y="170" as="targetPoint" />
          </mxGeometry>
        </mxCell>
        <mxCell id="WIyWlLk6GJQsqaUBKTNV-3" value="Google form submit" style="rounded=1;whiteSpace=wrap;html=1;fontSize=12;glass=0;strokeWidth=1;shadow=0;" parent="WIyWlLk6GJQsqaUBKTNV-1" vertex="1">
          <mxGeometry x="160" y="80" width="120" height="40" as="geometry" />
        </mxCell>
        <mxCell id="GlyiPWZzuKX-3juaX3U4-3" value="" style="edgeStyle=orthogonalEdgeStyle;rounded=0;orthogonalLoop=1;jettySize=auto;html=1;" edge="1" parent="WIyWlLk6GJQsqaUBKTNV-1" source="GlyiPWZzuKX-3juaX3U4-1" target="GlyiPWZzuKX-3juaX3U4-2">
          <mxGeometry relative="1" as="geometry" />
        </mxCell>
        <mxCell id="GlyiPWZzuKX-3juaX3U4-6" value="" style="edgeStyle=orthogonalEdgeStyle;rounded=0;orthogonalLoop=1;jettySize=auto;html=1;" edge="1" parent="WIyWlLk6GJQsqaUBKTNV-1" source="GlyiPWZzuKX-3juaX3U4-1" target="GlyiPWZzuKX-3juaX3U4-5">
          <mxGeometry relative="1" as="geometry" />
        </mxCell>
        <mxCell id="GlyiPWZzuKX-3juaX3U4-7" value="if not linked" style="edgeLabel;html=1;align=center;verticalAlign=middle;resizable=0;points=[];" vertex="1" connectable="0" parent="GlyiPWZzuKX-3juaX3U4-6">
          <mxGeometry x="0.0422" y="2" relative="1" as="geometry">
            <mxPoint as="offset" />
          </mxGeometry>
        </mxCell>
        <mxCell id="GlyiPWZzuKX-3juaX3U4-1" value="&lt;span style=&quot;font-size: 10px;&quot;&gt;verifiying phone number and mail for already linked to another account&lt;/span&gt;" style="rounded=0;whiteSpace=wrap;html=1;" vertex="1" parent="WIyWlLk6GJQsqaUBKTNV-1">
          <mxGeometry x="80" y="170" width="280" height="60" as="geometry" />
        </mxCell>
        <mxCell id="GlyiPWZzuKX-3juaX3U4-2" value="send appropriate mail to sales rep with details" style="whiteSpace=wrap;html=1;rounded=0;" vertex="1" parent="WIyWlLk6GJQsqaUBKTNV-1">
          <mxGeometry x="520" y="170" width="180" height="60" as="geometry" />
        </mxCell>
        <mxCell id="GlyiPWZzuKX-3juaX3U4-4" value="if linked" style="text;html=1;align=center;verticalAlign=middle;resizable=0;points=[];autosize=1;strokeColor=none;fillColor=none;" vertex="1" parent="WIyWlLk6GJQsqaUBKTNV-1">
          <mxGeometry x="400" y="168" width="60" height="30" as="geometry" />
        </mxCell>
        <mxCell id="GlyiPWZzuKX-3juaX3U4-10" value="" style="edgeStyle=orthogonalEdgeStyle;rounded=0;orthogonalLoop=1;jettySize=auto;html=1;" edge="1" parent="WIyWlLk6GJQsqaUBKTNV-1" source="GlyiPWZzuKX-3juaX3U4-11" target="GlyiPWZzuKX-3juaX3U4-9">
          <mxGeometry relative="1" as="geometry" />
        </mxCell>
        <mxCell id="GlyiPWZzuKX-3juaX3U4-20" value="" style="edgeStyle=orthogonalEdgeStyle;rounded=0;orthogonalLoop=1;jettySize=auto;html=1;" edge="1" parent="WIyWlLk6GJQsqaUBKTNV-1" source="GlyiPWZzuKX-3juaX3U4-5" target="GlyiPWZzuKX-3juaX3U4-19">
          <mxGeometry relative="1" as="geometry" />
        </mxCell>
        <mxCell id="GlyiPWZzuKX-3juaX3U4-21" value="Refresh or Failure between the onBoarding setup completion&amp;nbsp;&amp;nbsp;" style="edgeLabel;html=1;align=center;verticalAlign=middle;resizable=0;points=[];" vertex="1" connectable="0" parent="GlyiPWZzuKX-3juaX3U4-20">
          <mxGeometry x="-0.2169" y="-1" relative="1" as="geometry">
            <mxPoint as="offset" />
          </mxGeometry>
        </mxCell>
        <mxCell id="GlyiPWZzuKX-3juaX3U4-5" value="create a sales rep account for them. and send email which has stripe connect onboarding email" style="whiteSpace=wrap;html=1;rounded=0;" vertex="1" parent="WIyWlLk6GJQsqaUBKTNV-1">
          <mxGeometry x="130" y="320" width="180" height="60" as="geometry" />
        </mxCell>
        <mxCell id="GlyiPWZzuKX-3juaX3U4-14" value="" style="edgeStyle=orthogonalEdgeStyle;rounded=0;orthogonalLoop=1;jettySize=auto;html=1;" edge="1" parent="WIyWlLk6GJQsqaUBKTNV-1" source="GlyiPWZzuKX-3juaX3U4-9" target="GlyiPWZzuKX-3juaX3U4-13">
          <mxGeometry relative="1" as="geometry" />
        </mxCell>
        <mxCell id="GlyiPWZzuKX-3juaX3U4-17" value="" style="edgeStyle=orthogonalEdgeStyle;rounded=0;orthogonalLoop=1;jettySize=auto;html=1;" edge="1" parent="WIyWlLk6GJQsqaUBKTNV-1" source="GlyiPWZzuKX-3juaX3U4-9" target="GlyiPWZzuKX-3juaX3U4-16">
          <mxGeometry relative="1" as="geometry" />
        </mxCell>
        <mxCell id="GlyiPWZzuKX-3juaX3U4-18" value="Recieves 2 emails" style="edgeLabel;html=1;align=center;verticalAlign=middle;resizable=0;points=[];" vertex="1" connectable="0" parent="GlyiPWZzuKX-3juaX3U4-17">
          <mxGeometry x="-0.7647" y="1" relative="1" as="geometry">
            <mxPoint as="offset" />
          </mxGeometry>
        </mxCell>
        <mxCell id="GlyiPWZzuKX-3juaX3U4-9" value="Reach a setup completed page&amp;nbsp;" style="whiteSpace=wrap;html=1;rounded=0;" vertex="1" parent="WIyWlLk6GJQsqaUBKTNV-1">
          <mxGeometry x="160" y="460" width="120" height="60" as="geometry" />
        </mxCell>
        <mxCell id="GlyiPWZzuKX-3juaX3U4-12" value="" style="edgeStyle=orthogonalEdgeStyle;rounded=0;orthogonalLoop=1;jettySize=auto;html=1;" edge="1" parent="WIyWlLk6GJQsqaUBKTNV-1" source="GlyiPWZzuKX-3juaX3U4-5" target="GlyiPWZzuKX-3juaX3U4-11">
          <mxGeometry relative="1" as="geometry">
            <mxPoint x="220" y="380" as="sourcePoint" />
            <mxPoint x="220" y="460" as="targetPoint" />
          </mxGeometry>
        </mxCell>
        <mxCell id="GlyiPWZzuKX-3juaX3U4-11" value="after success onboard completion" style="text;html=1;align=center;verticalAlign=middle;resizable=0;points=[];autosize=1;strokeColor=none;fillColor=none;" vertex="1" parent="WIyWlLk6GJQsqaUBKTNV-1">
          <mxGeometry x="120" y="408" width="200" height="30" as="geometry" />
        </mxCell>
        <mxCell id="GlyiPWZzuKX-3juaX3U4-13" value="Onbording completing mail with express dasboard access link" style="whiteSpace=wrap;html=1;rounded=0;" vertex="1" parent="WIyWlLk6GJQsqaUBKTNV-1">
          <mxGeometry x="50" y="640" width="140" height="60" as="geometry" />
        </mxCell>
        <mxCell id="GlyiPWZzuKX-3juaX3U4-16" value="Notice of acceptance email with sales rep&#39;s referral link" style="whiteSpace=wrap;html=1;rounded=0;" vertex="1" parent="WIyWlLk6GJQsqaUBKTNV-1">
          <mxGeometry x="280" y="640" width="120" height="60" as="geometry" />
        </mxCell>
        <mxCell id="GlyiPWZzuKX-3juaX3U4-19" value="Reaches setup failed page , on there have another button to resume theonBoaridng process completing which generates the another onBoarding setup URL. you can continue it where you left." style="whiteSpace=wrap;html=1;rounded=0;" vertex="1" parent="WIyWlLk6GJQsqaUBKTNV-1">
          <mxGeometry x="490" y="480" width="330" height="60" as="geometry" />
        </mxCell>
      </root>
    </mxGraphModel>
  </diagram>
</mxfile>
